<mxfile host="Electron" modified="2024-02-29T09:44:37.561Z" agent="Mozilla/5.0 (Windows NT 10.0; Win64; x64) AppleWebKit/537.36 (KHTML, like Gecko) draw.io/23.1.5 Chrome/120.0.6099.109 Electron/28.1.0 Safari/537.36" etag="QuVGoWfJ_E-wuyYKELZH" version="23.1.5" type="device">
  <diagram name="Page-1" id="9GtqRazpQojA5KpIAFGJ">
    <mxGraphModel dx="2607" dy="1535" grid="1" gridSize="10" guides="1" tooltips="1" connect="1" arrows="1" fold="1" page="1" pageScale="1" pageWidth="850" pageHeight="1100" math="0" shadow="0">
      <root>
        <mxCell id="0" />
        <mxCell id="1" parent="0" />
        <mxCell id="3Yl6NUVvSSKZdZsIhmiR-46" value="Patients" style="rounded=1;whiteSpace=wrap;html=1;" vertex="1" parent="1">
          <mxGeometry x="4935" y="1710" width="120" height="60" as="geometry" />
        </mxCell>
        <mxCell id="3Yl6NUVvSSKZdZsIhmiR-47" value="Doctors" style="rounded=1;whiteSpace=wrap;html=1;" vertex="1" parent="1">
          <mxGeometry x="4930" y="2460" width="120" height="60" as="geometry" />
        </mxCell>
        <mxCell id="3Yl6NUVvSSKZdZsIhmiR-48" value="Treatments" style="rounded=1;whiteSpace=wrap;html=1;" vertex="1" parent="1">
          <mxGeometry x="5850" y="1730" width="120" height="60" as="geometry" />
        </mxCell>
        <mxCell id="3Yl6NUVvSSKZdZsIhmiR-50" value="ICUs" style="rounded=1;whiteSpace=wrap;html=1;" vertex="1" parent="1">
          <mxGeometry x="1110" y="920" width="120" height="60" as="geometry" />
        </mxCell>
        <mxCell id="3Yl6NUVvSSKZdZsIhmiR-62" value="id" style="ellipse;whiteSpace=wrap;html=1;" vertex="1" parent="1">
          <mxGeometry x="4795" y="1870" width="120" height="60" as="geometry" />
        </mxCell>
        <mxCell id="3Yl6NUVvSSKZdZsIhmiR-63" value="last_name" style="ellipse;whiteSpace=wrap;html=1;" vertex="1" parent="1">
          <mxGeometry x="4735" y="1700" width="120" height="60" as="geometry" />
        </mxCell>
        <mxCell id="3Yl6NUVvSSKZdZsIhmiR-64" value="first_name" style="ellipse;whiteSpace=wrap;html=1;" vertex="1" parent="1">
          <mxGeometry x="4735" y="1780" width="120" height="60" as="geometry" />
        </mxCell>
        <mxCell id="3Yl6NUVvSSKZdZsIhmiR-65" value="age" style="ellipse;whiteSpace=wrap;html=1;" vertex="1" parent="1">
          <mxGeometry x="4745" y="1620" width="120" height="60" as="geometry" />
        </mxCell>
        <mxCell id="3Yl6NUVvSSKZdZsIhmiR-66" value="weight" style="ellipse;whiteSpace=wrap;html=1;" vertex="1" parent="1">
          <mxGeometry x="4855" y="1560" width="120" height="60" as="geometry" />
        </mxCell>
        <mxCell id="3Yl6NUVvSSKZdZsIhmiR-67" value="gender" style="ellipse;whiteSpace=wrap;html=1;" vertex="1" parent="1">
          <mxGeometry x="5010" y="1560" width="120" height="60" as="geometry" />
        </mxCell>
        <mxCell id="3Yl6NUVvSSKZdZsIhmiR-68" value="occupation" style="ellipse;whiteSpace=wrap;html=1;" vertex="1" parent="1">
          <mxGeometry x="5130" y="1620" width="120" height="60" as="geometry" />
        </mxCell>
        <mxCell id="3Yl6NUVvSSKZdZsIhmiR-69" value="doctor_id" style="ellipse;whiteSpace=wrap;html=1;" vertex="1" parent="1">
          <mxGeometry x="5145" y="1700" width="120" height="60" as="geometry" />
        </mxCell>
        <mxCell id="3Yl6NUVvSSKZdZsIhmiR-70" value="treatment_id" style="ellipse;whiteSpace=wrap;html=1;" vertex="1" parent="1">
          <mxGeometry x="5145" y="1780" width="120" height="60" as="geometry" />
        </mxCell>
        <mxCell id="3Yl6NUVvSSKZdZsIhmiR-71" value="room_number" style="ellipse;whiteSpace=wrap;html=1;" vertex="1" parent="1">
          <mxGeometry x="5075" y="1870" width="120" height="60" as="geometry" />
        </mxCell>
        <mxCell id="3Yl6NUVvSSKZdZsIhmiR-83" value="" style="endArrow=none;html=1;rounded=0;entryX=0.03;entryY=0.967;entryDx=0;entryDy=0;exitX=1;exitY=0.5;exitDx=0;exitDy=0;entryPerimeter=0;" edge="1" parent="1" source="3Yl6NUVvSSKZdZsIhmiR-64" target="3Yl6NUVvSSKZdZsIhmiR-46">
          <mxGeometry width="50" height="50" relative="1" as="geometry">
            <mxPoint x="4885" y="1840" as="sourcePoint" />
            <mxPoint x="4935" y="1790" as="targetPoint" />
          </mxGeometry>
        </mxCell>
        <mxCell id="3Yl6NUVvSSKZdZsIhmiR-84" value="" style="endArrow=none;html=1;rounded=0;entryX=0;entryY=0.5;entryDx=0;entryDy=0;exitX=1;exitY=0.5;exitDx=0;exitDy=0;" edge="1" parent="1" source="3Yl6NUVvSSKZdZsIhmiR-63" target="3Yl6NUVvSSKZdZsIhmiR-46">
          <mxGeometry width="50" height="50" relative="1" as="geometry">
            <mxPoint x="4885" y="1800" as="sourcePoint" />
            <mxPoint x="4935" y="1750" as="targetPoint" />
          </mxGeometry>
        </mxCell>
        <mxCell id="3Yl6NUVvSSKZdZsIhmiR-85" value="" style="endArrow=none;html=1;rounded=0;entryX=0.019;entryY=0.051;entryDx=0;entryDy=0;exitX=1;exitY=0.5;exitDx=0;exitDy=0;entryPerimeter=0;" edge="1" parent="1" source="3Yl6NUVvSSKZdZsIhmiR-65" target="3Yl6NUVvSSKZdZsIhmiR-46">
          <mxGeometry width="50" height="50" relative="1" as="geometry">
            <mxPoint x="4885" y="1800" as="sourcePoint" />
            <mxPoint x="4935" y="1750" as="targetPoint" />
          </mxGeometry>
        </mxCell>
        <mxCell id="3Yl6NUVvSSKZdZsIhmiR-86" value="" style="endArrow=none;html=1;rounded=0;entryX=0.25;entryY=0;entryDx=0;entryDy=0;exitX=0.5;exitY=1;exitDx=0;exitDy=0;" edge="1" parent="1" source="3Yl6NUVvSSKZdZsIhmiR-66" target="3Yl6NUVvSSKZdZsIhmiR-46">
          <mxGeometry width="50" height="50" relative="1" as="geometry">
            <mxPoint x="4885" y="1720" as="sourcePoint" />
            <mxPoint x="4935" y="1670" as="targetPoint" />
          </mxGeometry>
        </mxCell>
        <mxCell id="3Yl6NUVvSSKZdZsIhmiR-87" value="" style="endArrow=none;html=1;rounded=0;entryX=0.5;entryY=1;entryDx=0;entryDy=0;exitX=0.75;exitY=0;exitDx=0;exitDy=0;" edge="1" parent="1" source="3Yl6NUVvSSKZdZsIhmiR-46" target="3Yl6NUVvSSKZdZsIhmiR-67">
          <mxGeometry width="50" height="50" relative="1" as="geometry">
            <mxPoint x="4915" y="1760" as="sourcePoint" />
            <mxPoint x="4965" y="1710" as="targetPoint" />
          </mxGeometry>
        </mxCell>
        <mxCell id="3Yl6NUVvSSKZdZsIhmiR-88" value="" style="endArrow=none;html=1;rounded=0;entryX=-0.007;entryY=0.598;entryDx=0;entryDy=0;entryPerimeter=0;exitX=0.979;exitY=0.052;exitDx=0;exitDy=0;exitPerimeter=0;" edge="1" parent="1" source="3Yl6NUVvSSKZdZsIhmiR-46" target="3Yl6NUVvSSKZdZsIhmiR-68">
          <mxGeometry width="50" height="50" relative="1" as="geometry">
            <mxPoint x="4945" y="1770" as="sourcePoint" />
            <mxPoint x="4995" y="1720" as="targetPoint" />
          </mxGeometry>
        </mxCell>
        <mxCell id="3Yl6NUVvSSKZdZsIhmiR-89" value="" style="endArrow=none;html=1;rounded=0;entryX=0.5;entryY=0;entryDx=0;entryDy=0;exitX=0.333;exitY=0.999;exitDx=0;exitDy=0;exitPerimeter=0;" edge="1" parent="1" source="3Yl6NUVvSSKZdZsIhmiR-46" target="3Yl6NUVvSSKZdZsIhmiR-62">
          <mxGeometry width="50" height="50" relative="1" as="geometry">
            <mxPoint x="4965" y="1790" as="sourcePoint" />
            <mxPoint x="5015" y="1740" as="targetPoint" />
          </mxGeometry>
        </mxCell>
        <mxCell id="3Yl6NUVvSSKZdZsIhmiR-90" value="" style="endArrow=none;html=1;rounded=0;entryX=0;entryY=0.5;entryDx=0;entryDy=0;exitX=1;exitY=0.5;exitDx=0;exitDy=0;" edge="1" parent="1" source="3Yl6NUVvSSKZdZsIhmiR-46" target="3Yl6NUVvSSKZdZsIhmiR-69">
          <mxGeometry width="50" height="50" relative="1" as="geometry">
            <mxPoint x="5035" y="1810" as="sourcePoint" />
            <mxPoint x="5085" y="1760" as="targetPoint" />
          </mxGeometry>
        </mxCell>
        <mxCell id="3Yl6NUVvSSKZdZsIhmiR-91" value="" style="endArrow=none;html=1;rounded=0;entryX=0;entryY=0.5;entryDx=0;entryDy=0;exitX=1;exitY=0.75;exitDx=0;exitDy=0;" edge="1" parent="1" source="3Yl6NUVvSSKZdZsIhmiR-46" target="3Yl6NUVvSSKZdZsIhmiR-70">
          <mxGeometry width="50" height="50" relative="1" as="geometry">
            <mxPoint x="5035" y="1810" as="sourcePoint" />
            <mxPoint x="5085" y="1760" as="targetPoint" />
          </mxGeometry>
        </mxCell>
        <mxCell id="3Yl6NUVvSSKZdZsIhmiR-92" value="" style="endArrow=none;html=1;rounded=0;entryX=0.5;entryY=0;entryDx=0;entryDy=0;exitX=0.75;exitY=1;exitDx=0;exitDy=0;" edge="1" parent="1" source="3Yl6NUVvSSKZdZsIhmiR-46" target="3Yl6NUVvSSKZdZsIhmiR-71">
          <mxGeometry width="50" height="50" relative="1" as="geometry">
            <mxPoint x="5035" y="1810" as="sourcePoint" />
            <mxPoint x="5085" y="1760" as="targetPoint" />
          </mxGeometry>
        </mxCell>
        <mxCell id="3Yl6NUVvSSKZdZsIhmiR-93" value="id" style="ellipse;whiteSpace=wrap;html=1;" vertex="1" parent="1">
          <mxGeometry x="4770" y="2550" width="120" height="60" as="geometry" />
        </mxCell>
        <mxCell id="3Yl6NUVvSSKZdZsIhmiR-94" value="last_name" style="ellipse;whiteSpace=wrap;html=1;" vertex="1" parent="1">
          <mxGeometry x="4770" y="2370" width="120" height="60" as="geometry" />
        </mxCell>
        <mxCell id="3Yl6NUVvSSKZdZsIhmiR-95" value="first_name" style="ellipse;whiteSpace=wrap;html=1;" vertex="1" parent="1">
          <mxGeometry x="4730" y="2460" width="120" height="60" as="geometry" />
        </mxCell>
        <mxCell id="3Yl6NUVvSSKZdZsIhmiR-96" value="age" style="ellipse;whiteSpace=wrap;html=1;" vertex="1" parent="1">
          <mxGeometry x="4930" y="2310" width="120" height="60" as="geometry" />
        </mxCell>
        <mxCell id="3Yl6NUVvSSKZdZsIhmiR-101" value="gender" style="ellipse;whiteSpace=wrap;html=1;" vertex="1" parent="1">
          <mxGeometry x="5090" y="2370" width="120" height="60" as="geometry" />
        </mxCell>
        <mxCell id="3Yl6NUVvSSKZdZsIhmiR-102" value="studies" style="ellipse;whiteSpace=wrap;html=1;" vertex="1" parent="1">
          <mxGeometry x="5110" y="2460" width="120" height="60" as="geometry" />
        </mxCell>
        <mxCell id="3Yl6NUVvSSKZdZsIhmiR-103" value="specialization" style="ellipse;whiteSpace=wrap;html=1;" vertex="1" parent="1">
          <mxGeometry x="5090" y="2550" width="120" height="60" as="geometry" />
        </mxCell>
        <mxCell id="3Yl6NUVvSSKZdZsIhmiR-105" value="" style="endArrow=none;html=1;rounded=0;entryX=0;entryY=0.5;entryDx=0;entryDy=0;exitX=1;exitY=0.5;exitDx=0;exitDy=0;" edge="1" parent="1" source="3Yl6NUVvSSKZdZsIhmiR-95" target="3Yl6NUVvSSKZdZsIhmiR-47">
          <mxGeometry width="50" height="50" relative="1" as="geometry">
            <mxPoint x="4810" y="2560" as="sourcePoint" />
            <mxPoint x="4860" y="2510" as="targetPoint" />
          </mxGeometry>
        </mxCell>
        <mxCell id="3Yl6NUVvSSKZdZsIhmiR-106" value="" style="endArrow=none;html=1;rounded=0;entryX=0.028;entryY=0.965;entryDx=0;entryDy=0;entryPerimeter=0;exitX=0.5;exitY=0;exitDx=0;exitDy=0;" edge="1" parent="1" source="3Yl6NUVvSSKZdZsIhmiR-93" target="3Yl6NUVvSSKZdZsIhmiR-47">
          <mxGeometry width="50" height="50" relative="1" as="geometry">
            <mxPoint x="4810" y="2560" as="sourcePoint" />
            <mxPoint x="4860" y="2510" as="targetPoint" />
          </mxGeometry>
        </mxCell>
        <mxCell id="3Yl6NUVvSSKZdZsIhmiR-107" value="" style="endArrow=none;html=1;rounded=0;entryX=0.5;entryY=1;entryDx=0;entryDy=0;exitX=0.961;exitY=0.023;exitDx=0;exitDy=0;exitPerimeter=0;" edge="1" parent="1" source="3Yl6NUVvSSKZdZsIhmiR-47" target="3Yl6NUVvSSKZdZsIhmiR-101">
          <mxGeometry width="50" height="50" relative="1" as="geometry">
            <mxPoint x="5060" y="2440" as="sourcePoint" />
            <mxPoint x="5010" y="2460" as="targetPoint" />
          </mxGeometry>
        </mxCell>
        <mxCell id="3Yl6NUVvSSKZdZsIhmiR-108" value="" style="endArrow=none;html=1;rounded=0;entryX=0.5;entryY=1;entryDx=0;entryDy=0;exitX=0.5;exitY=0;exitDx=0;exitDy=0;" edge="1" parent="1" source="3Yl6NUVvSSKZdZsIhmiR-47" target="3Yl6NUVvSSKZdZsIhmiR-96">
          <mxGeometry width="50" height="50" relative="1" as="geometry">
            <mxPoint x="4960" y="2510" as="sourcePoint" />
            <mxPoint x="5010" y="2460" as="targetPoint" />
          </mxGeometry>
        </mxCell>
        <mxCell id="3Yl6NUVvSSKZdZsIhmiR-109" value="" style="endArrow=none;html=1;rounded=0;entryX=0.5;entryY=1;entryDx=0;entryDy=0;exitX=0.037;exitY=0.023;exitDx=0;exitDy=0;exitPerimeter=0;" edge="1" parent="1" source="3Yl6NUVvSSKZdZsIhmiR-47" target="3Yl6NUVvSSKZdZsIhmiR-94">
          <mxGeometry width="50" height="50" relative="1" as="geometry">
            <mxPoint x="4960" y="2510" as="sourcePoint" />
            <mxPoint x="5010" y="2460" as="targetPoint" />
          </mxGeometry>
        </mxCell>
        <mxCell id="3Yl6NUVvSSKZdZsIhmiR-110" value="" style="endArrow=none;html=1;rounded=0;entryX=0.971;entryY=0.973;entryDx=0;entryDy=0;entryPerimeter=0;exitX=0.5;exitY=0;exitDx=0;exitDy=0;" edge="1" parent="1" source="3Yl6NUVvSSKZdZsIhmiR-103" target="3Yl6NUVvSSKZdZsIhmiR-47">
          <mxGeometry width="50" height="50" relative="1" as="geometry">
            <mxPoint x="5100" y="2540" as="sourcePoint" />
            <mxPoint x="5150" y="2490" as="targetPoint" />
          </mxGeometry>
        </mxCell>
        <mxCell id="3Yl6NUVvSSKZdZsIhmiR-111" value="" style="endArrow=none;html=1;rounded=0;exitX=1;exitY=0.5;exitDx=0;exitDy=0;entryX=0;entryY=0.5;entryDx=0;entryDy=0;" edge="1" parent="1" source="3Yl6NUVvSSKZdZsIhmiR-47" target="3Yl6NUVvSSKZdZsIhmiR-102">
          <mxGeometry width="50" height="50" relative="1" as="geometry">
            <mxPoint x="5100" y="2540" as="sourcePoint" />
            <mxPoint x="5110" y="2490" as="targetPoint" />
          </mxGeometry>
        </mxCell>
        <mxCell id="3Yl6NUVvSSKZdZsIhmiR-113" value="id" style="ellipse;whiteSpace=wrap;html=1;" vertex="1" parent="1">
          <mxGeometry x="5680" y="1730" width="120" height="60" as="geometry" />
        </mxCell>
        <mxCell id="3Yl6NUVvSSKZdZsIhmiR-114" value="name" style="ellipse;whiteSpace=wrap;html=1;" vertex="1" parent="1">
          <mxGeometry x="5760" y="1620" width="120" height="60" as="geometry" />
        </mxCell>
        <mxCell id="3Yl6NUVvSSKZdZsIhmiR-115" value="medicine_id" style="ellipse;whiteSpace=wrap;html=1;" vertex="1" parent="1">
          <mxGeometry x="6020" y="1730" width="120" height="60" as="geometry" />
        </mxCell>
        <mxCell id="3Yl6NUVvSSKZdZsIhmiR-116" value="duration" style="ellipse;whiteSpace=wrap;html=1;" vertex="1" parent="1">
          <mxGeometry x="5960" y="1620" width="120" height="60" as="geometry" />
        </mxCell>
        <mxCell id="3Yl6NUVvSSKZdZsIhmiR-117" value="" style="endArrow=none;html=1;rounded=0;exitX=0;exitY=0.5;exitDx=0;exitDy=0;entryX=1;entryY=0.5;entryDx=0;entryDy=0;" edge="1" parent="1" source="3Yl6NUVvSSKZdZsIhmiR-48" target="3Yl6NUVvSSKZdZsIhmiR-113">
          <mxGeometry width="50" height="50" relative="1" as="geometry">
            <mxPoint x="5860" y="1640" as="sourcePoint" />
            <mxPoint x="5820" y="1770" as="targetPoint" />
          </mxGeometry>
        </mxCell>
        <mxCell id="3Yl6NUVvSSKZdZsIhmiR-119" value="medicine_id" style="ellipse;whiteSpace=wrap;html=1;" vertex="1" parent="1">
          <mxGeometry x="6020" y="1730" width="120" height="60" as="geometry" />
        </mxCell>
        <mxCell id="3Yl6NUVvSSKZdZsIhmiR-120" value="" style="endArrow=none;html=1;rounded=0;entryX=0.5;entryY=1;entryDx=0;entryDy=0;exitX=0.25;exitY=0;exitDx=0;exitDy=0;" edge="1" parent="1" source="3Yl6NUVvSSKZdZsIhmiR-48" target="3Yl6NUVvSSKZdZsIhmiR-114">
          <mxGeometry width="50" height="50" relative="1" as="geometry">
            <mxPoint x="5980" y="1730" as="sourcePoint" />
            <mxPoint x="6030" y="1680" as="targetPoint" />
          </mxGeometry>
        </mxCell>
        <mxCell id="3Yl6NUVvSSKZdZsIhmiR-121" value="" style="endArrow=none;html=1;rounded=0;exitX=0.75;exitY=0;exitDx=0;exitDy=0;entryX=0.5;entryY=1;entryDx=0;entryDy=0;" edge="1" parent="1" source="3Yl6NUVvSSKZdZsIhmiR-48" target="3Yl6NUVvSSKZdZsIhmiR-116">
          <mxGeometry width="50" height="50" relative="1" as="geometry">
            <mxPoint x="5980" y="1730" as="sourcePoint" />
            <mxPoint x="6030" y="1680" as="targetPoint" />
          </mxGeometry>
        </mxCell>
        <mxCell id="3Yl6NUVvSSKZdZsIhmiR-122" value="" style="endArrow=none;html=1;rounded=0;entryX=0;entryY=0.5;entryDx=0;entryDy=0;exitX=1;exitY=0.5;exitDx=0;exitDy=0;" edge="1" parent="1" source="3Yl6NUVvSSKZdZsIhmiR-48" target="3Yl6NUVvSSKZdZsIhmiR-119">
          <mxGeometry width="50" height="50" relative="1" as="geometry">
            <mxPoint x="5990" y="1720" as="sourcePoint" />
            <mxPoint x="6040" y="1670" as="targetPoint" />
          </mxGeometry>
        </mxCell>
        <mxCell id="3Yl6NUVvSSKZdZsIhmiR-127" value="Rooms" style="rounded=1;whiteSpace=wrap;html=1;" vertex="1" parent="1">
          <mxGeometry x="4340" y="1210" width="120" height="60" as="geometry" />
        </mxCell>
        <mxCell id="3Yl6NUVvSSKZdZsIhmiR-128" value="number" style="ellipse;whiteSpace=wrap;html=1;" vertex="1" parent="1">
          <mxGeometry x="4250" y="1100" width="120" height="60" as="geometry" />
        </mxCell>
        <mxCell id="3Yl6NUVvSSKZdZsIhmiR-129" value="floor" style="ellipse;whiteSpace=wrap;html=1;" vertex="1" parent="1">
          <mxGeometry x="4450" y="1100" width="120" height="60" as="geometry" />
        </mxCell>
        <mxCell id="3Yl6NUVvSSKZdZsIhmiR-130" value="" style="endArrow=none;html=1;rounded=0;entryX=0.5;entryY=1;entryDx=0;entryDy=0;exitX=0.25;exitY=0;exitDx=0;exitDy=0;" edge="1" parent="1" source="3Yl6NUVvSSKZdZsIhmiR-127" target="3Yl6NUVvSSKZdZsIhmiR-128">
          <mxGeometry width="50" height="50" relative="1" as="geometry">
            <mxPoint x="4470" y="1210" as="sourcePoint" />
            <mxPoint x="4520" y="1160" as="targetPoint" />
          </mxGeometry>
        </mxCell>
        <mxCell id="3Yl6NUVvSSKZdZsIhmiR-131" value="" style="endArrow=none;html=1;rounded=0;exitX=0.75;exitY=0;exitDx=0;exitDy=0;entryX=0.5;entryY=1;entryDx=0;entryDy=0;" edge="1" parent="1" source="3Yl6NUVvSSKZdZsIhmiR-127" target="3Yl6NUVvSSKZdZsIhmiR-129">
          <mxGeometry width="50" height="50" relative="1" as="geometry">
            <mxPoint x="4470" y="1210" as="sourcePoint" />
            <mxPoint x="4520" y="1160" as="targetPoint" />
          </mxGeometry>
        </mxCell>
        <mxCell id="3Yl6NUVvSSKZdZsIhmiR-134" value="number" style="ellipse;whiteSpace=wrap;html=1;" vertex="1" parent="1">
          <mxGeometry x="940" y="920" width="120" height="60" as="geometry" />
        </mxCell>
        <mxCell id="3Yl6NUVvSSKZdZsIhmiR-135" value="floor" style="ellipse;whiteSpace=wrap;html=1;" vertex="1" parent="1">
          <mxGeometry x="1110" y="820" width="120" height="60" as="geometry" />
        </mxCell>
        <mxCell id="3Yl6NUVvSSKZdZsIhmiR-136" value="type" style="ellipse;whiteSpace=wrap;html=1;" vertex="1" parent="1">
          <mxGeometry x="1280" y="920" width="120" height="60" as="geometry" />
        </mxCell>
        <mxCell id="3Yl6NUVvSSKZdZsIhmiR-137" value="" style="endArrow=none;html=1;rounded=0;entryX=0;entryY=0.5;entryDx=0;entryDy=0;exitX=1;exitY=0.5;exitDx=0;exitDy=0;" edge="1" parent="1" source="3Yl6NUVvSSKZdZsIhmiR-134" target="3Yl6NUVvSSKZdZsIhmiR-50">
          <mxGeometry width="50" height="50" relative="1" as="geometry">
            <mxPoint x="1050" y="890" as="sourcePoint" />
            <mxPoint x="1100" y="840" as="targetPoint" />
          </mxGeometry>
        </mxCell>
        <mxCell id="3Yl6NUVvSSKZdZsIhmiR-138" value="" style="endArrow=none;html=1;rounded=0;entryX=0;entryY=0.5;entryDx=0;entryDy=0;exitX=1;exitY=0.5;exitDx=0;exitDy=0;" edge="1" parent="1" source="3Yl6NUVvSSKZdZsIhmiR-50" target="3Yl6NUVvSSKZdZsIhmiR-136">
          <mxGeometry width="50" height="50" relative="1" as="geometry">
            <mxPoint x="1050" y="890" as="sourcePoint" />
            <mxPoint x="1100" y="840" as="targetPoint" />
            <Array as="points">
              <mxPoint x="1260" y="950" />
            </Array>
          </mxGeometry>
        </mxCell>
        <mxCell id="3Yl6NUVvSSKZdZsIhmiR-139" value="" style="endArrow=none;html=1;rounded=0;entryX=0.5;entryY=0;entryDx=0;entryDy=0;exitX=0.5;exitY=1;exitDx=0;exitDy=0;" edge="1" parent="1" source="3Yl6NUVvSSKZdZsIhmiR-135" target="3Yl6NUVvSSKZdZsIhmiR-50">
          <mxGeometry width="50" height="50" relative="1" as="geometry">
            <mxPoint x="1050" y="890" as="sourcePoint" />
            <mxPoint x="1100" y="840" as="targetPoint" />
          </mxGeometry>
        </mxCell>
        <mxCell id="3Yl6NUVvSSKZdZsIhmiR-147" value="OperationsTheaters" style="rounded=1;whiteSpace=wrap;html=1;" vertex="1" parent="1">
          <mxGeometry x="2880" y="100" width="120" height="60" as="geometry" />
        </mxCell>
        <mxCell id="3Yl6NUVvSSKZdZsIhmiR-148" value="number" style="ellipse;whiteSpace=wrap;html=1;" vertex="1" parent="1">
          <mxGeometry x="2710" y="100" width="120" height="60" as="geometry" />
        </mxCell>
        <mxCell id="3Yl6NUVvSSKZdZsIhmiR-149" value="floor" style="ellipse;whiteSpace=wrap;html=1;" vertex="1" parent="1">
          <mxGeometry x="2880" width="120" height="60" as="geometry" />
        </mxCell>
        <mxCell id="3Yl6NUVvSSKZdZsIhmiR-150" value="specialization" style="ellipse;whiteSpace=wrap;html=1;" vertex="1" parent="1">
          <mxGeometry x="3050" y="100" width="120" height="60" as="geometry" />
        </mxCell>
        <mxCell id="3Yl6NUVvSSKZdZsIhmiR-151" value="" style="endArrow=none;html=1;rounded=0;entryX=0;entryY=0.5;entryDx=0;entryDy=0;exitX=1;exitY=0.5;exitDx=0;exitDy=0;" edge="1" parent="1" source="3Yl6NUVvSSKZdZsIhmiR-148" target="3Yl6NUVvSSKZdZsIhmiR-147">
          <mxGeometry width="50" height="50" relative="1" as="geometry">
            <mxPoint x="2820" y="70" as="sourcePoint" />
            <mxPoint x="2870" y="20" as="targetPoint" />
          </mxGeometry>
        </mxCell>
        <mxCell id="3Yl6NUVvSSKZdZsIhmiR-152" value="" style="endArrow=none;html=1;rounded=0;entryX=0;entryY=0.5;entryDx=0;entryDy=0;exitX=1;exitY=0.5;exitDx=0;exitDy=0;" edge="1" parent="1" source="3Yl6NUVvSSKZdZsIhmiR-147" target="3Yl6NUVvSSKZdZsIhmiR-150">
          <mxGeometry width="50" height="50" relative="1" as="geometry">
            <mxPoint x="2820" y="70" as="sourcePoint" />
            <mxPoint x="2870" y="20" as="targetPoint" />
          </mxGeometry>
        </mxCell>
        <mxCell id="3Yl6NUVvSSKZdZsIhmiR-153" value="" style="endArrow=none;html=1;rounded=0;entryX=0.5;entryY=0;entryDx=0;entryDy=0;exitX=0.5;exitY=1;exitDx=0;exitDy=0;" edge="1" parent="1" source="3Yl6NUVvSSKZdZsIhmiR-149" target="3Yl6NUVvSSKZdZsIhmiR-147">
          <mxGeometry width="50" height="50" relative="1" as="geometry">
            <mxPoint x="2820" y="70" as="sourcePoint" />
            <mxPoint x="2870" y="20" as="targetPoint" />
          </mxGeometry>
        </mxCell>
        <mxCell id="3Yl6NUVvSSKZdZsIhmiR-154" value="Nurses" style="rounded=1;whiteSpace=wrap;html=1;" vertex="1" parent="1">
          <mxGeometry x="350" y="1690" width="120" height="60" as="geometry" />
        </mxCell>
        <mxCell id="3Yl6NUVvSSKZdZsIhmiR-155" value="id" style="ellipse;whiteSpace=wrap;html=1;" vertex="1" parent="1">
          <mxGeometry x="190" y="1780" width="120" height="60" as="geometry" />
        </mxCell>
        <mxCell id="3Yl6NUVvSSKZdZsIhmiR-156" value="last_name" style="ellipse;whiteSpace=wrap;html=1;" vertex="1" parent="1">
          <mxGeometry x="190" y="1600" width="120" height="60" as="geometry" />
        </mxCell>
        <mxCell id="3Yl6NUVvSSKZdZsIhmiR-157" value="first_name" style="ellipse;whiteSpace=wrap;html=1;" vertex="1" parent="1">
          <mxGeometry x="150" y="1690" width="120" height="60" as="geometry" />
        </mxCell>
        <mxCell id="3Yl6NUVvSSKZdZsIhmiR-158" value="age" style="ellipse;whiteSpace=wrap;html=1;" vertex="1" parent="1">
          <mxGeometry x="350" y="1540" width="120" height="60" as="geometry" />
        </mxCell>
        <mxCell id="3Yl6NUVvSSKZdZsIhmiR-159" value="gender" style="ellipse;whiteSpace=wrap;html=1;" vertex="1" parent="1">
          <mxGeometry x="510" y="1600" width="120" height="60" as="geometry" />
        </mxCell>
        <mxCell id="3Yl6NUVvSSKZdZsIhmiR-160" value="studies" style="ellipse;whiteSpace=wrap;html=1;" vertex="1" parent="1">
          <mxGeometry x="530" y="1690" width="120" height="60" as="geometry" />
        </mxCell>
        <mxCell id="3Yl6NUVvSSKZdZsIhmiR-161" value="floor" style="ellipse;whiteSpace=wrap;html=1;" vertex="1" parent="1">
          <mxGeometry x="510" y="1780" width="120" height="60" as="geometry" />
        </mxCell>
        <mxCell id="3Yl6NUVvSSKZdZsIhmiR-162" value="" style="endArrow=none;html=1;rounded=0;entryX=0;entryY=0.5;entryDx=0;entryDy=0;exitX=1;exitY=0.5;exitDx=0;exitDy=0;" edge="1" parent="1" source="3Yl6NUVvSSKZdZsIhmiR-157" target="3Yl6NUVvSSKZdZsIhmiR-154">
          <mxGeometry width="50" height="50" relative="1" as="geometry">
            <mxPoint x="230" y="1790" as="sourcePoint" />
            <mxPoint x="280" y="1740" as="targetPoint" />
          </mxGeometry>
        </mxCell>
        <mxCell id="3Yl6NUVvSSKZdZsIhmiR-163" value="" style="endArrow=none;html=1;rounded=0;entryX=0.028;entryY=0.965;entryDx=0;entryDy=0;entryPerimeter=0;exitX=0.5;exitY=0;exitDx=0;exitDy=0;" edge="1" parent="1" source="3Yl6NUVvSSKZdZsIhmiR-155" target="3Yl6NUVvSSKZdZsIhmiR-154">
          <mxGeometry width="50" height="50" relative="1" as="geometry">
            <mxPoint x="230" y="1790" as="sourcePoint" />
            <mxPoint x="280" y="1740" as="targetPoint" />
          </mxGeometry>
        </mxCell>
        <mxCell id="3Yl6NUVvSSKZdZsIhmiR-164" value="" style="endArrow=none;html=1;rounded=0;entryX=0.5;entryY=1;entryDx=0;entryDy=0;exitX=0.961;exitY=0.023;exitDx=0;exitDy=0;exitPerimeter=0;" edge="1" parent="1" source="3Yl6NUVvSSKZdZsIhmiR-154" target="3Yl6NUVvSSKZdZsIhmiR-159">
          <mxGeometry width="50" height="50" relative="1" as="geometry">
            <mxPoint x="480" y="1670" as="sourcePoint" />
            <mxPoint x="430" y="1690" as="targetPoint" />
          </mxGeometry>
        </mxCell>
        <mxCell id="3Yl6NUVvSSKZdZsIhmiR-165" value="" style="endArrow=none;html=1;rounded=0;entryX=0.5;entryY=1;entryDx=0;entryDy=0;exitX=0.5;exitY=0;exitDx=0;exitDy=0;" edge="1" parent="1" source="3Yl6NUVvSSKZdZsIhmiR-154" target="3Yl6NUVvSSKZdZsIhmiR-158">
          <mxGeometry width="50" height="50" relative="1" as="geometry">
            <mxPoint x="380" y="1740" as="sourcePoint" />
            <mxPoint x="430" y="1690" as="targetPoint" />
          </mxGeometry>
        </mxCell>
        <mxCell id="3Yl6NUVvSSKZdZsIhmiR-166" value="" style="endArrow=none;html=1;rounded=0;entryX=0.5;entryY=1;entryDx=0;entryDy=0;exitX=0.037;exitY=0.023;exitDx=0;exitDy=0;exitPerimeter=0;" edge="1" parent="1" source="3Yl6NUVvSSKZdZsIhmiR-154" target="3Yl6NUVvSSKZdZsIhmiR-156">
          <mxGeometry width="50" height="50" relative="1" as="geometry">
            <mxPoint x="380" y="1740" as="sourcePoint" />
            <mxPoint x="430" y="1690" as="targetPoint" />
          </mxGeometry>
        </mxCell>
        <mxCell id="3Yl6NUVvSSKZdZsIhmiR-167" value="" style="endArrow=none;html=1;rounded=0;entryX=0.971;entryY=0.973;entryDx=0;entryDy=0;entryPerimeter=0;exitX=0.5;exitY=0;exitDx=0;exitDy=0;" edge="1" parent="1" source="3Yl6NUVvSSKZdZsIhmiR-161" target="3Yl6NUVvSSKZdZsIhmiR-154">
          <mxGeometry width="50" height="50" relative="1" as="geometry">
            <mxPoint x="520" y="1770" as="sourcePoint" />
            <mxPoint x="570" y="1720" as="targetPoint" />
          </mxGeometry>
        </mxCell>
        <mxCell id="3Yl6NUVvSSKZdZsIhmiR-168" value="" style="endArrow=none;html=1;rounded=0;exitX=1;exitY=0.5;exitDx=0;exitDy=0;entryX=0;entryY=0.5;entryDx=0;entryDy=0;" edge="1" parent="1" source="3Yl6NUVvSSKZdZsIhmiR-154" target="3Yl6NUVvSSKZdZsIhmiR-160">
          <mxGeometry width="50" height="50" relative="1" as="geometry">
            <mxPoint x="520" y="1770" as="sourcePoint" />
            <mxPoint x="530" y="1720" as="targetPoint" />
          </mxGeometry>
        </mxCell>
        <mxCell id="3Yl6NUVvSSKZdZsIhmiR-200" value="Watchmen" style="rounded=1;whiteSpace=wrap;html=1;" vertex="1" parent="1">
          <mxGeometry x="1210" y="1690" width="120" height="60" as="geometry" />
        </mxCell>
        <mxCell id="3Yl6NUVvSSKZdZsIhmiR-201" value="id" style="ellipse;whiteSpace=wrap;html=1;" vertex="1" parent="1">
          <mxGeometry x="1110" y="1820" width="120" height="60" as="geometry" />
        </mxCell>
        <mxCell id="3Yl6NUVvSSKZdZsIhmiR-202" value="last_name" style="ellipse;whiteSpace=wrap;html=1;" vertex="1" parent="1">
          <mxGeometry x="1120" y="1560" width="120" height="60" as="geometry" />
        </mxCell>
        <mxCell id="3Yl6NUVvSSKZdZsIhmiR-203" value="first_name" style="ellipse;whiteSpace=wrap;html=1;" vertex="1" parent="1">
          <mxGeometry x="1030" y="1690" width="120" height="60" as="geometry" />
        </mxCell>
        <mxCell id="3Yl6NUVvSSKZdZsIhmiR-205" value="age" style="ellipse;whiteSpace=wrap;html=1;" vertex="1" parent="1">
          <mxGeometry x="1320" y="1560" width="120" height="60" as="geometry" />
        </mxCell>
        <mxCell id="3Yl6NUVvSSKZdZsIhmiR-206" value="gender" style="ellipse;whiteSpace=wrap;html=1;" vertex="1" parent="1">
          <mxGeometry x="1400" y="1690" width="120" height="60" as="geometry" />
        </mxCell>
        <mxCell id="3Yl6NUVvSSKZdZsIhmiR-207" value="assigned_zone" style="ellipse;whiteSpace=wrap;html=1;" vertex="1" parent="1">
          <mxGeometry x="1320" y="1820" width="120" height="60" as="geometry" />
        </mxCell>
        <mxCell id="3Yl6NUVvSSKZdZsIhmiR-208" value="" style="endArrow=none;html=1;rounded=0;entryX=0;entryY=0.5;entryDx=0;entryDy=0;exitX=1;exitY=0.5;exitDx=0;exitDy=0;" edge="1" parent="1" source="3Yl6NUVvSSKZdZsIhmiR-203" target="3Yl6NUVvSSKZdZsIhmiR-200">
          <mxGeometry width="50" height="50" relative="1" as="geometry">
            <mxPoint x="1090" y="1790" as="sourcePoint" />
            <mxPoint x="1140" y="1740" as="targetPoint" />
          </mxGeometry>
        </mxCell>
        <mxCell id="3Yl6NUVvSSKZdZsIhmiR-209" value="" style="endArrow=none;html=1;rounded=0;entryX=0.028;entryY=0.965;entryDx=0;entryDy=0;entryPerimeter=0;exitX=0.5;exitY=0;exitDx=0;exitDy=0;" edge="1" parent="1" source="3Yl6NUVvSSKZdZsIhmiR-201" target="3Yl6NUVvSSKZdZsIhmiR-200">
          <mxGeometry width="50" height="50" relative="1" as="geometry">
            <mxPoint x="1090" y="1790" as="sourcePoint" />
            <mxPoint x="1140" y="1740" as="targetPoint" />
          </mxGeometry>
        </mxCell>
        <mxCell id="3Yl6NUVvSSKZdZsIhmiR-210" value="" style="endArrow=none;html=1;rounded=0;entryX=0.5;entryY=1;entryDx=0;entryDy=0;exitX=0.961;exitY=0.023;exitDx=0;exitDy=0;exitPerimeter=0;" edge="1" parent="1" source="3Yl6NUVvSSKZdZsIhmiR-200" target="3Yl6NUVvSSKZdZsIhmiR-205">
          <mxGeometry width="50" height="50" relative="1" as="geometry">
            <mxPoint x="1340" y="1670" as="sourcePoint" />
            <mxPoint x="1290" y="1690" as="targetPoint" />
          </mxGeometry>
        </mxCell>
        <mxCell id="3Yl6NUVvSSKZdZsIhmiR-212" value="" style="endArrow=none;html=1;rounded=0;entryX=0.5;entryY=1;entryDx=0;entryDy=0;exitX=0.037;exitY=0.023;exitDx=0;exitDy=0;exitPerimeter=0;" edge="1" parent="1" source="3Yl6NUVvSSKZdZsIhmiR-200" target="3Yl6NUVvSSKZdZsIhmiR-202">
          <mxGeometry width="50" height="50" relative="1" as="geometry">
            <mxPoint x="1240" y="1740" as="sourcePoint" />
            <mxPoint x="1290" y="1690" as="targetPoint" />
          </mxGeometry>
        </mxCell>
        <mxCell id="3Yl6NUVvSSKZdZsIhmiR-213" value="" style="endArrow=none;html=1;rounded=0;entryX=0.971;entryY=0.973;entryDx=0;entryDy=0;entryPerimeter=0;exitX=0.5;exitY=0;exitDx=0;exitDy=0;" edge="1" parent="1" source="3Yl6NUVvSSKZdZsIhmiR-207" target="3Yl6NUVvSSKZdZsIhmiR-200">
          <mxGeometry width="50" height="50" relative="1" as="geometry">
            <mxPoint x="1380" y="1770" as="sourcePoint" />
            <mxPoint x="1430" y="1720" as="targetPoint" />
          </mxGeometry>
        </mxCell>
        <mxCell id="3Yl6NUVvSSKZdZsIhmiR-214" value="" style="endArrow=none;html=1;rounded=0;exitX=1;exitY=0.5;exitDx=0;exitDy=0;entryX=0;entryY=0.5;entryDx=0;entryDy=0;" edge="1" parent="1" source="3Yl6NUVvSSKZdZsIhmiR-200" target="3Yl6NUVvSSKZdZsIhmiR-206">
          <mxGeometry width="50" height="50" relative="1" as="geometry">
            <mxPoint x="1380" y="1770" as="sourcePoint" />
            <mxPoint x="1390" y="1720" as="targetPoint" />
          </mxGeometry>
        </mxCell>
        <mxCell id="3Yl6NUVvSSKZdZsIhmiR-216" value="Bills" style="rounded=1;whiteSpace=wrap;html=1;" vertex="1" parent="1">
          <mxGeometry x="5700" y="1220" width="120" height="60" as="geometry" />
        </mxCell>
        <mxCell id="3Yl6NUVvSSKZdZsIhmiR-217" value="id" style="ellipse;whiteSpace=wrap;html=1;" vertex="1" parent="1">
          <mxGeometry x="5570" y="1310" width="120" height="60" as="geometry" />
        </mxCell>
        <mxCell id="3Yl6NUVvSSKZdZsIhmiR-218" value="name" style="ellipse;whiteSpace=wrap;html=1;" vertex="1" parent="1">
          <mxGeometry x="5570" y="1130" width="120" height="60" as="geometry" />
        </mxCell>
        <mxCell id="3Yl6NUVvSSKZdZsIhmiR-219" value="sum" style="ellipse;whiteSpace=wrap;html=1;" vertex="1" parent="1">
          <mxGeometry x="5700" y="1090" width="120" height="60" as="geometry" />
        </mxCell>
        <mxCell id="3Yl6NUVvSSKZdZsIhmiR-220" value="state" style="ellipse;whiteSpace=wrap;html=1;" vertex="1" parent="1">
          <mxGeometry x="5830" y="1130" width="120" height="60" as="geometry" />
        </mxCell>
        <mxCell id="3Yl6NUVvSSKZdZsIhmiR-222" value="patient_id" style="ellipse;whiteSpace=wrap;html=1;" vertex="1" parent="1">
          <mxGeometry x="5830" y="1310" width="120" height="60" as="geometry" />
        </mxCell>
        <mxCell id="3Yl6NUVvSSKZdZsIhmiR-223" value="" style="endArrow=none;html=1;rounded=0;entryX=0.5;entryY=0;entryDx=0;entryDy=0;exitX=0.5;exitY=1;exitDx=0;exitDy=0;" edge="1" parent="1" source="3Yl6NUVvSSKZdZsIhmiR-219" target="3Yl6NUVvSSKZdZsIhmiR-216">
          <mxGeometry width="50" height="50" relative="1" as="geometry">
            <mxPoint x="5580" y="1320" as="sourcePoint" />
            <mxPoint x="5630" y="1270" as="targetPoint" />
          </mxGeometry>
        </mxCell>
        <mxCell id="3Yl6NUVvSSKZdZsIhmiR-224" value="" style="endArrow=none;html=1;rounded=0;entryX=0.028;entryY=0.965;entryDx=0;entryDy=0;entryPerimeter=0;exitX=0.5;exitY=0;exitDx=0;exitDy=0;" edge="1" parent="1" source="3Yl6NUVvSSKZdZsIhmiR-217" target="3Yl6NUVvSSKZdZsIhmiR-216">
          <mxGeometry width="50" height="50" relative="1" as="geometry">
            <mxPoint x="5580" y="1320" as="sourcePoint" />
            <mxPoint x="5630" y="1270" as="targetPoint" />
          </mxGeometry>
        </mxCell>
        <mxCell id="3Yl6NUVvSSKZdZsIhmiR-225" value="" style="endArrow=none;html=1;rounded=0;entryX=0.5;entryY=1;entryDx=0;entryDy=0;exitX=0.961;exitY=0.023;exitDx=0;exitDy=0;exitPerimeter=0;" edge="1" parent="1" source="3Yl6NUVvSSKZdZsIhmiR-216" target="3Yl6NUVvSSKZdZsIhmiR-220">
          <mxGeometry width="50" height="50" relative="1" as="geometry">
            <mxPoint x="5830" y="1200" as="sourcePoint" />
            <mxPoint x="5780" y="1220" as="targetPoint" />
          </mxGeometry>
        </mxCell>
        <mxCell id="3Yl6NUVvSSKZdZsIhmiR-226" value="" style="endArrow=none;html=1;rounded=0;entryX=0.5;entryY=1;entryDx=0;entryDy=0;exitX=0.037;exitY=0.023;exitDx=0;exitDy=0;exitPerimeter=0;" edge="1" parent="1" source="3Yl6NUVvSSKZdZsIhmiR-216" target="3Yl6NUVvSSKZdZsIhmiR-218">
          <mxGeometry width="50" height="50" relative="1" as="geometry">
            <mxPoint x="5730" y="1270" as="sourcePoint" />
            <mxPoint x="5780" y="1220" as="targetPoint" />
          </mxGeometry>
        </mxCell>
        <mxCell id="3Yl6NUVvSSKZdZsIhmiR-227" value="" style="endArrow=none;html=1;rounded=0;entryX=0.971;entryY=0.973;entryDx=0;entryDy=0;entryPerimeter=0;exitX=0.5;exitY=0;exitDx=0;exitDy=0;" edge="1" parent="1" source="3Yl6NUVvSSKZdZsIhmiR-222" target="3Yl6NUVvSSKZdZsIhmiR-216">
          <mxGeometry width="50" height="50" relative="1" as="geometry">
            <mxPoint x="5870" y="1300" as="sourcePoint" />
            <mxPoint x="5920" y="1250" as="targetPoint" />
          </mxGeometry>
        </mxCell>
        <mxCell id="3Yl6NUVvSSKZdZsIhmiR-242" value="Medicines" style="rounded=1;whiteSpace=wrap;html=1;" vertex="1" parent="1">
          <mxGeometry x="6670" y="1680" width="120" height="60" as="geometry" />
        </mxCell>
        <mxCell id="3Yl6NUVvSSKZdZsIhmiR-243" value="id" style="ellipse;whiteSpace=wrap;html=1;" vertex="1" parent="1">
          <mxGeometry x="6540" y="1770" width="120" height="60" as="geometry" />
        </mxCell>
        <mxCell id="3Yl6NUVvSSKZdZsIhmiR-244" value="name" style="ellipse;whiteSpace=wrap;html=1;" vertex="1" parent="1">
          <mxGeometry x="6540" y="1590" width="120" height="60" as="geometry" />
        </mxCell>
        <mxCell id="3Yl6NUVvSSKZdZsIhmiR-245" value="expiration_date" style="ellipse;whiteSpace=wrap;html=1;" vertex="1" parent="1">
          <mxGeometry x="6670" y="1550" width="120" height="60" as="geometry" />
        </mxCell>
        <mxCell id="3Yl6NUVvSSKZdZsIhmiR-246" value="state" style="ellipse;whiteSpace=wrap;html=1;" vertex="1" parent="1">
          <mxGeometry x="6800" y="1590" width="120" height="60" as="geometry" />
        </mxCell>
        <mxCell id="3Yl6NUVvSSKZdZsIhmiR-247" value="patient_id" style="ellipse;whiteSpace=wrap;html=1;" vertex="1" parent="1">
          <mxGeometry x="6800" y="1770" width="120" height="60" as="geometry" />
        </mxCell>
        <mxCell id="3Yl6NUVvSSKZdZsIhmiR-248" value="" style="endArrow=none;html=1;rounded=0;entryX=0.5;entryY=0;entryDx=0;entryDy=0;exitX=0.5;exitY=1;exitDx=0;exitDy=0;" edge="1" parent="1" source="3Yl6NUVvSSKZdZsIhmiR-245" target="3Yl6NUVvSSKZdZsIhmiR-242">
          <mxGeometry width="50" height="50" relative="1" as="geometry">
            <mxPoint x="6550" y="1780" as="sourcePoint" />
            <mxPoint x="6600" y="1730" as="targetPoint" />
          </mxGeometry>
        </mxCell>
        <mxCell id="3Yl6NUVvSSKZdZsIhmiR-249" value="" style="endArrow=none;html=1;rounded=0;entryX=0.028;entryY=0.965;entryDx=0;entryDy=0;entryPerimeter=0;exitX=0.5;exitY=0;exitDx=0;exitDy=0;" edge="1" parent="1" source="3Yl6NUVvSSKZdZsIhmiR-243" target="3Yl6NUVvSSKZdZsIhmiR-242">
          <mxGeometry width="50" height="50" relative="1" as="geometry">
            <mxPoint x="6550" y="1780" as="sourcePoint" />
            <mxPoint x="6600" y="1730" as="targetPoint" />
          </mxGeometry>
        </mxCell>
        <mxCell id="3Yl6NUVvSSKZdZsIhmiR-250" value="" style="endArrow=none;html=1;rounded=0;entryX=0.5;entryY=1;entryDx=0;entryDy=0;exitX=0.961;exitY=0.023;exitDx=0;exitDy=0;exitPerimeter=0;" edge="1" parent="1" source="3Yl6NUVvSSKZdZsIhmiR-242" target="3Yl6NUVvSSKZdZsIhmiR-246">
          <mxGeometry width="50" height="50" relative="1" as="geometry">
            <mxPoint x="6800" y="1660" as="sourcePoint" />
            <mxPoint x="6750" y="1680" as="targetPoint" />
          </mxGeometry>
        </mxCell>
        <mxCell id="3Yl6NUVvSSKZdZsIhmiR-251" value="" style="endArrow=none;html=1;rounded=0;entryX=0.5;entryY=1;entryDx=0;entryDy=0;exitX=0.037;exitY=0.023;exitDx=0;exitDy=0;exitPerimeter=0;" edge="1" parent="1" source="3Yl6NUVvSSKZdZsIhmiR-242" target="3Yl6NUVvSSKZdZsIhmiR-244">
          <mxGeometry width="50" height="50" relative="1" as="geometry">
            <mxPoint x="6700" y="1730" as="sourcePoint" />
            <mxPoint x="6750" y="1680" as="targetPoint" />
          </mxGeometry>
        </mxCell>
        <mxCell id="3Yl6NUVvSSKZdZsIhmiR-252" value="" style="endArrow=none;html=1;rounded=0;entryX=0.971;entryY=0.973;entryDx=0;entryDy=0;entryPerimeter=0;exitX=0.5;exitY=0;exitDx=0;exitDy=0;" edge="1" parent="1" source="3Yl6NUVvSSKZdZsIhmiR-247" target="3Yl6NUVvSSKZdZsIhmiR-242">
          <mxGeometry width="50" height="50" relative="1" as="geometry">
            <mxPoint x="6840" y="1760" as="sourcePoint" />
            <mxPoint x="6890" y="1710" as="targetPoint" />
          </mxGeometry>
        </mxCell>
        <mxCell id="3Yl6NUVvSSKZdZsIhmiR-253" value="Apprentices" style="rounded=1;whiteSpace=wrap;html=1;" vertex="1" parent="1">
          <mxGeometry x="4370" y="2750" width="120" height="60" as="geometry" />
        </mxCell>
        <mxCell id="3Yl6NUVvSSKZdZsIhmiR-254" value="id" style="ellipse;whiteSpace=wrap;html=1;" vertex="1" parent="1">
          <mxGeometry x="4170" y="2830" width="120" height="60" as="geometry" />
        </mxCell>
        <mxCell id="3Yl6NUVvSSKZdZsIhmiR-255" value="last_name" style="ellipse;whiteSpace=wrap;html=1;" vertex="1" parent="1">
          <mxGeometry x="4170" y="2670" width="120" height="60" as="geometry" />
        </mxCell>
        <mxCell id="3Yl6NUVvSSKZdZsIhmiR-256" value="first_name" style="ellipse;whiteSpace=wrap;html=1;" vertex="1" parent="1">
          <mxGeometry x="4140" y="2750" width="120" height="60" as="geometry" />
        </mxCell>
        <mxCell id="3Yl6NUVvSSKZdZsIhmiR-257" value="age" style="ellipse;whiteSpace=wrap;html=1;" vertex="1" parent="1">
          <mxGeometry x="4250" y="2600" width="120" height="60" as="geometry" />
        </mxCell>
        <mxCell id="3Yl6NUVvSSKZdZsIhmiR-258" value="gender" style="ellipse;whiteSpace=wrap;html=1;" vertex="1" parent="1">
          <mxGeometry x="4370" y="2560" width="120" height="60" as="geometry" />
        </mxCell>
        <mxCell id="3Yl6NUVvSSKZdZsIhmiR-259" value="university" style="ellipse;whiteSpace=wrap;html=1;" vertex="1" parent="1">
          <mxGeometry x="4490" y="2600" width="120" height="60" as="geometry" />
        </mxCell>
        <mxCell id="3Yl6NUVvSSKZdZsIhmiR-260" value="study_year" style="ellipse;whiteSpace=wrap;html=1;" vertex="1" parent="1">
          <mxGeometry x="4570" y="2670" width="120" height="60" as="geometry" />
        </mxCell>
        <mxCell id="3Yl6NUVvSSKZdZsIhmiR-261" value="specialization" style="ellipse;whiteSpace=wrap;html=1;" vertex="1" parent="1">
          <mxGeometry x="4590" y="2750" width="120" height="60" as="geometry" />
        </mxCell>
        <mxCell id="3Yl6NUVvSSKZdZsIhmiR-262" value="doctor_id" style="ellipse;whiteSpace=wrap;html=1;" vertex="1" parent="1">
          <mxGeometry x="4570" y="2830" width="120" height="60" as="geometry" />
        </mxCell>
        <mxCell id="3Yl6NUVvSSKZdZsIhmiR-264" value="" style="endArrow=none;html=1;rounded=0;entryX=0;entryY=0.5;entryDx=0;entryDy=0;exitX=1;exitY=0.5;exitDx=0;exitDy=0;" edge="1" parent="1" source="3Yl6NUVvSSKZdZsIhmiR-256" target="3Yl6NUVvSSKZdZsIhmiR-253">
          <mxGeometry width="50" height="50" relative="1" as="geometry">
            <mxPoint x="4320" y="2880" as="sourcePoint" />
            <mxPoint x="4370" y="2830" as="targetPoint" />
          </mxGeometry>
        </mxCell>
        <mxCell id="3Yl6NUVvSSKZdZsIhmiR-265" value="" style="endArrow=none;html=1;rounded=0;entryX=0;entryY=0.25;entryDx=0;entryDy=0;exitX=1;exitY=0.5;exitDx=0;exitDy=0;" edge="1" parent="1" source="3Yl6NUVvSSKZdZsIhmiR-255" target="3Yl6NUVvSSKZdZsIhmiR-253">
          <mxGeometry width="50" height="50" relative="1" as="geometry">
            <mxPoint x="4320" y="2840" as="sourcePoint" />
            <mxPoint x="4370" y="2790" as="targetPoint" />
          </mxGeometry>
        </mxCell>
        <mxCell id="3Yl6NUVvSSKZdZsIhmiR-266" value="" style="endArrow=none;html=1;rounded=0;exitX=0.5;exitY=1;exitDx=0;exitDy=0;" edge="1" parent="1" source="3Yl6NUVvSSKZdZsIhmiR-257">
          <mxGeometry width="50" height="50" relative="1" as="geometry">
            <mxPoint x="4320" y="2840" as="sourcePoint" />
            <mxPoint x="4400" y="2750" as="targetPoint" />
          </mxGeometry>
        </mxCell>
        <mxCell id="3Yl6NUVvSSKZdZsIhmiR-267" value="" style="endArrow=none;html=1;rounded=0;entryX=0.5;entryY=0;entryDx=0;entryDy=0;exitX=0.5;exitY=1;exitDx=0;exitDy=0;" edge="1" parent="1" source="3Yl6NUVvSSKZdZsIhmiR-258" target="3Yl6NUVvSSKZdZsIhmiR-253">
          <mxGeometry width="50" height="50" relative="1" as="geometry">
            <mxPoint x="4320" y="2760" as="sourcePoint" />
            <mxPoint x="4370" y="2710" as="targetPoint" />
          </mxGeometry>
        </mxCell>
        <mxCell id="3Yl6NUVvSSKZdZsIhmiR-268" value="" style="endArrow=none;html=1;rounded=0;entryX=0.5;entryY=1;entryDx=0;entryDy=0;exitX=0.75;exitY=0;exitDx=0;exitDy=0;" edge="1" parent="1" source="3Yl6NUVvSSKZdZsIhmiR-253" target="3Yl6NUVvSSKZdZsIhmiR-259">
          <mxGeometry width="50" height="50" relative="1" as="geometry">
            <mxPoint x="4350" y="2800" as="sourcePoint" />
            <mxPoint x="4400" y="2750" as="targetPoint" />
          </mxGeometry>
        </mxCell>
        <mxCell id="3Yl6NUVvSSKZdZsIhmiR-269" value="" style="endArrow=none;html=1;rounded=0;entryX=-0.007;entryY=0.598;entryDx=0;entryDy=0;entryPerimeter=0;exitX=1;exitY=0.25;exitDx=0;exitDy=0;" edge="1" parent="1" source="3Yl6NUVvSSKZdZsIhmiR-253" target="3Yl6NUVvSSKZdZsIhmiR-260">
          <mxGeometry width="50" height="50" relative="1" as="geometry">
            <mxPoint x="4380" y="2810" as="sourcePoint" />
            <mxPoint x="4430" y="2760" as="targetPoint" />
          </mxGeometry>
        </mxCell>
        <mxCell id="3Yl6NUVvSSKZdZsIhmiR-270" value="" style="endArrow=none;html=1;rounded=0;entryX=1;entryY=0.5;entryDx=0;entryDy=0;exitX=0;exitY=0.75;exitDx=0;exitDy=0;" edge="1" parent="1" source="3Yl6NUVvSSKZdZsIhmiR-253" target="3Yl6NUVvSSKZdZsIhmiR-254">
          <mxGeometry width="50" height="50" relative="1" as="geometry">
            <mxPoint x="4400" y="2830" as="sourcePoint" />
            <mxPoint x="4450" y="2780" as="targetPoint" />
          </mxGeometry>
        </mxCell>
        <mxCell id="3Yl6NUVvSSKZdZsIhmiR-271" value="" style="endArrow=none;html=1;rounded=0;entryX=0;entryY=0.5;entryDx=0;entryDy=0;exitX=1;exitY=0.5;exitDx=0;exitDy=0;" edge="1" parent="1" source="3Yl6NUVvSSKZdZsIhmiR-253" target="3Yl6NUVvSSKZdZsIhmiR-261">
          <mxGeometry width="50" height="50" relative="1" as="geometry">
            <mxPoint x="4470" y="2850" as="sourcePoint" />
            <mxPoint x="4520" y="2800" as="targetPoint" />
          </mxGeometry>
        </mxCell>
        <mxCell id="3Yl6NUVvSSKZdZsIhmiR-272" value="" style="endArrow=none;html=1;rounded=0;entryX=0;entryY=0.5;entryDx=0;entryDy=0;exitX=1;exitY=0.75;exitDx=0;exitDy=0;" edge="1" parent="1" source="3Yl6NUVvSSKZdZsIhmiR-253" target="3Yl6NUVvSSKZdZsIhmiR-262">
          <mxGeometry width="50" height="50" relative="1" as="geometry">
            <mxPoint x="4470" y="2850" as="sourcePoint" />
            <mxPoint x="4520" y="2800" as="targetPoint" />
          </mxGeometry>
        </mxCell>
        <mxCell id="3Yl6NUVvSSKZdZsIhmiR-274" value="Purchases" style="rounded=1;whiteSpace=wrap;html=1;" vertex="1" parent="1">
          <mxGeometry x="2775" y="3430" width="120" height="60" as="geometry" />
        </mxCell>
        <mxCell id="3Yl6NUVvSSKZdZsIhmiR-275" value="id" style="ellipse;whiteSpace=wrap;html=1;" vertex="1" parent="1">
          <mxGeometry x="2605" y="3430" width="120" height="60" as="geometry" />
        </mxCell>
        <mxCell id="3Yl6NUVvSSKZdZsIhmiR-276" value="name" style="ellipse;whiteSpace=wrap;html=1;" vertex="1" parent="1">
          <mxGeometry x="2685" y="3320" width="120" height="60" as="geometry" />
        </mxCell>
        <mxCell id="3Yl6NUVvSSKZdZsIhmiR-277" value="medicine_id" style="ellipse;whiteSpace=wrap;html=1;" vertex="1" parent="1">
          <mxGeometry x="2945" y="3430" width="120" height="60" as="geometry" />
        </mxCell>
        <mxCell id="3Yl6NUVvSSKZdZsIhmiR-278" value="sum" style="ellipse;whiteSpace=wrap;html=1;" vertex="1" parent="1">
          <mxGeometry x="2885" y="3320" width="120" height="60" as="geometry" />
        </mxCell>
        <mxCell id="3Yl6NUVvSSKZdZsIhmiR-279" value="" style="endArrow=none;html=1;rounded=0;exitX=0;exitY=0.5;exitDx=0;exitDy=0;entryX=1;entryY=0.5;entryDx=0;entryDy=0;" edge="1" parent="1" source="3Yl6NUVvSSKZdZsIhmiR-274" target="3Yl6NUVvSSKZdZsIhmiR-275">
          <mxGeometry width="50" height="50" relative="1" as="geometry">
            <mxPoint x="2785" y="3340" as="sourcePoint" />
            <mxPoint x="2745" y="3470" as="targetPoint" />
          </mxGeometry>
        </mxCell>
        <mxCell id="3Yl6NUVvSSKZdZsIhmiR-280" value="quantity" style="ellipse;whiteSpace=wrap;html=1;" vertex="1" parent="1">
          <mxGeometry x="2945" y="3430" width="120" height="60" as="geometry" />
        </mxCell>
        <mxCell id="3Yl6NUVvSSKZdZsIhmiR-281" value="" style="endArrow=none;html=1;rounded=0;entryX=0.5;entryY=1;entryDx=0;entryDy=0;exitX=0.25;exitY=0;exitDx=0;exitDy=0;" edge="1" parent="1" source="3Yl6NUVvSSKZdZsIhmiR-274" target="3Yl6NUVvSSKZdZsIhmiR-276">
          <mxGeometry width="50" height="50" relative="1" as="geometry">
            <mxPoint x="2905" y="3430" as="sourcePoint" />
            <mxPoint x="2955" y="3380" as="targetPoint" />
          </mxGeometry>
        </mxCell>
        <mxCell id="3Yl6NUVvSSKZdZsIhmiR-282" value="" style="endArrow=none;html=1;rounded=0;exitX=0.75;exitY=0;exitDx=0;exitDy=0;entryX=0.5;entryY=1;entryDx=0;entryDy=0;" edge="1" parent="1" source="3Yl6NUVvSSKZdZsIhmiR-274" target="3Yl6NUVvSSKZdZsIhmiR-278">
          <mxGeometry width="50" height="50" relative="1" as="geometry">
            <mxPoint x="2905" y="3430" as="sourcePoint" />
            <mxPoint x="2955" y="3380" as="targetPoint" />
          </mxGeometry>
        </mxCell>
        <mxCell id="3Yl6NUVvSSKZdZsIhmiR-283" value="" style="endArrow=none;html=1;rounded=0;entryX=0;entryY=0.5;entryDx=0;entryDy=0;exitX=1;exitY=0.5;exitDx=0;exitDy=0;" edge="1" parent="1" source="3Yl6NUVvSSKZdZsIhmiR-274" target="3Yl6NUVvSSKZdZsIhmiR-280">
          <mxGeometry width="50" height="50" relative="1" as="geometry">
            <mxPoint x="2915" y="3420" as="sourcePoint" />
            <mxPoint x="2965" y="3370" as="targetPoint" />
          </mxGeometry>
        </mxCell>
        <mxCell id="3Yl6NUVvSSKZdZsIhmiR-284" value="Shifts" style="rounded=1;whiteSpace=wrap;html=1;" vertex="1" parent="1">
          <mxGeometry x="310" y="3140" width="120" height="60" as="geometry" />
        </mxCell>
        <mxCell id="3Yl6NUVvSSKZdZsIhmiR-285" value="id" style="ellipse;whiteSpace=wrap;html=1;" vertex="1" parent="1">
          <mxGeometry x="140" y="3140" width="120" height="60" as="geometry" />
        </mxCell>
        <mxCell id="3Yl6NUVvSSKZdZsIhmiR-286" value="begin_time" style="ellipse;whiteSpace=wrap;html=1;" vertex="1" parent="1">
          <mxGeometry x="220" y="3030" width="120" height="60" as="geometry" />
        </mxCell>
        <mxCell id="3Yl6NUVvSSKZdZsIhmiR-287" value="medicine_id" style="ellipse;whiteSpace=wrap;html=1;" vertex="1" parent="1">
          <mxGeometry x="480" y="3140" width="120" height="60" as="geometry" />
        </mxCell>
        <mxCell id="3Yl6NUVvSSKZdZsIhmiR-288" value="end_time" style="ellipse;whiteSpace=wrap;html=1;" vertex="1" parent="1">
          <mxGeometry x="420" y="3030" width="120" height="60" as="geometry" />
        </mxCell>
        <mxCell id="3Yl6NUVvSSKZdZsIhmiR-289" value="" style="endArrow=none;html=1;rounded=0;exitX=0;exitY=0.5;exitDx=0;exitDy=0;entryX=1;entryY=0.5;entryDx=0;entryDy=0;" edge="1" parent="1" source="3Yl6NUVvSSKZdZsIhmiR-284" target="3Yl6NUVvSSKZdZsIhmiR-285">
          <mxGeometry width="50" height="50" relative="1" as="geometry">
            <mxPoint x="320" y="3050" as="sourcePoint" />
            <mxPoint x="280" y="3180" as="targetPoint" />
          </mxGeometry>
        </mxCell>
        <mxCell id="3Yl6NUVvSSKZdZsIhmiR-290" value="description" style="ellipse;whiteSpace=wrap;html=1;" vertex="1" parent="1">
          <mxGeometry x="480" y="3140" width="120" height="60" as="geometry" />
        </mxCell>
        <mxCell id="3Yl6NUVvSSKZdZsIhmiR-291" value="" style="endArrow=none;html=1;rounded=0;entryX=0.5;entryY=1;entryDx=0;entryDy=0;exitX=0.25;exitY=0;exitDx=0;exitDy=0;" edge="1" parent="1" source="3Yl6NUVvSSKZdZsIhmiR-284" target="3Yl6NUVvSSKZdZsIhmiR-286">
          <mxGeometry width="50" height="50" relative="1" as="geometry">
            <mxPoint x="440" y="3140" as="sourcePoint" />
            <mxPoint x="490" y="3090" as="targetPoint" />
          </mxGeometry>
        </mxCell>
        <mxCell id="3Yl6NUVvSSKZdZsIhmiR-292" value="" style="endArrow=none;html=1;rounded=0;exitX=0.75;exitY=0;exitDx=0;exitDy=0;entryX=0.5;entryY=1;entryDx=0;entryDy=0;" edge="1" parent="1" source="3Yl6NUVvSSKZdZsIhmiR-284" target="3Yl6NUVvSSKZdZsIhmiR-288">
          <mxGeometry width="50" height="50" relative="1" as="geometry">
            <mxPoint x="440" y="3140" as="sourcePoint" />
            <mxPoint x="490" y="3090" as="targetPoint" />
          </mxGeometry>
        </mxCell>
        <mxCell id="3Yl6NUVvSSKZdZsIhmiR-293" value="" style="endArrow=none;html=1;rounded=0;entryX=0;entryY=0.5;entryDx=0;entryDy=0;exitX=1;exitY=0.5;exitDx=0;exitDy=0;" edge="1" parent="1" source="3Yl6NUVvSSKZdZsIhmiR-284" target="3Yl6NUVvSSKZdZsIhmiR-290">
          <mxGeometry width="50" height="50" relative="1" as="geometry">
            <mxPoint x="450" y="3130" as="sourcePoint" />
            <mxPoint x="500" y="3080" as="targetPoint" />
          </mxGeometry>
        </mxCell>
        <mxCell id="3Yl6NUVvSSKZdZsIhmiR-294" value="Partners" style="rounded=1;whiteSpace=wrap;html=1;" vertex="1" parent="1">
          <mxGeometry x="1200" y="3030" width="120" height="60" as="geometry" />
        </mxCell>
        <mxCell id="3Yl6NUVvSSKZdZsIhmiR-295" value="id" style="ellipse;whiteSpace=wrap;html=1;" vertex="1" parent="1">
          <mxGeometry x="1070" y="3120" width="120" height="60" as="geometry" />
        </mxCell>
        <mxCell id="3Yl6NUVvSSKZdZsIhmiR-296" value="name" style="ellipse;whiteSpace=wrap;html=1;" vertex="1" parent="1">
          <mxGeometry x="1070" y="2940" width="120" height="60" as="geometry" />
        </mxCell>
        <mxCell id="3Yl6NUVvSSKZdZsIhmiR-297" value="partnership_type" style="ellipse;whiteSpace=wrap;html=1;" vertex="1" parent="1">
          <mxGeometry x="1200" y="2900" width="120" height="60" as="geometry" />
        </mxCell>
        <mxCell id="3Yl6NUVvSSKZdZsIhmiR-298" value="begin_date" style="ellipse;whiteSpace=wrap;html=1;" vertex="1" parent="1">
          <mxGeometry x="1330" y="2940" width="120" height="60" as="geometry" />
        </mxCell>
        <mxCell id="3Yl6NUVvSSKZdZsIhmiR-299" value="end_date" style="ellipse;whiteSpace=wrap;html=1;" vertex="1" parent="1">
          <mxGeometry x="1330" y="3120" width="120" height="60" as="geometry" />
        </mxCell>
        <mxCell id="3Yl6NUVvSSKZdZsIhmiR-300" value="" style="endArrow=none;html=1;rounded=0;entryX=0.5;entryY=0;entryDx=0;entryDy=0;exitX=0.5;exitY=1;exitDx=0;exitDy=0;" edge="1" parent="1" source="3Yl6NUVvSSKZdZsIhmiR-297" target="3Yl6NUVvSSKZdZsIhmiR-294">
          <mxGeometry width="50" height="50" relative="1" as="geometry">
            <mxPoint x="1080" y="3130" as="sourcePoint" />
            <mxPoint x="1130" y="3080" as="targetPoint" />
          </mxGeometry>
        </mxCell>
        <mxCell id="3Yl6NUVvSSKZdZsIhmiR-301" value="" style="endArrow=none;html=1;rounded=0;entryX=0.028;entryY=0.965;entryDx=0;entryDy=0;entryPerimeter=0;exitX=0.5;exitY=0;exitDx=0;exitDy=0;" edge="1" parent="1" source="3Yl6NUVvSSKZdZsIhmiR-295" target="3Yl6NUVvSSKZdZsIhmiR-294">
          <mxGeometry width="50" height="50" relative="1" as="geometry">
            <mxPoint x="1080" y="3130" as="sourcePoint" />
            <mxPoint x="1130" y="3080" as="targetPoint" />
          </mxGeometry>
        </mxCell>
        <mxCell id="3Yl6NUVvSSKZdZsIhmiR-302" value="" style="endArrow=none;html=1;rounded=0;entryX=0.5;entryY=1;entryDx=0;entryDy=0;exitX=0.961;exitY=0.023;exitDx=0;exitDy=0;exitPerimeter=0;" edge="1" parent="1" source="3Yl6NUVvSSKZdZsIhmiR-294" target="3Yl6NUVvSSKZdZsIhmiR-298">
          <mxGeometry width="50" height="50" relative="1" as="geometry">
            <mxPoint x="1330" y="3010" as="sourcePoint" />
            <mxPoint x="1280" y="3030" as="targetPoint" />
          </mxGeometry>
        </mxCell>
        <mxCell id="3Yl6NUVvSSKZdZsIhmiR-303" value="" style="endArrow=none;html=1;rounded=0;entryX=0.5;entryY=1;entryDx=0;entryDy=0;exitX=0.037;exitY=0.023;exitDx=0;exitDy=0;exitPerimeter=0;" edge="1" parent="1" source="3Yl6NUVvSSKZdZsIhmiR-294" target="3Yl6NUVvSSKZdZsIhmiR-296">
          <mxGeometry width="50" height="50" relative="1" as="geometry">
            <mxPoint x="1230" y="3080" as="sourcePoint" />
            <mxPoint x="1280" y="3030" as="targetPoint" />
          </mxGeometry>
        </mxCell>
        <mxCell id="3Yl6NUVvSSKZdZsIhmiR-304" value="" style="endArrow=none;html=1;rounded=0;entryX=0.971;entryY=0.973;entryDx=0;entryDy=0;entryPerimeter=0;exitX=0.5;exitY=0;exitDx=0;exitDy=0;" edge="1" parent="1" source="3Yl6NUVvSSKZdZsIhmiR-299" target="3Yl6NUVvSSKZdZsIhmiR-294">
          <mxGeometry width="50" height="50" relative="1" as="geometry">
            <mxPoint x="1370" y="3110" as="sourcePoint" />
            <mxPoint x="1420" y="3060" as="targetPoint" />
          </mxGeometry>
        </mxCell>
        <mxCell id="3Yl6NUVvSSKZdZsIhmiR-307" value="description" style="ellipse;whiteSpace=wrap;html=1;" vertex="1" parent="1">
          <mxGeometry x="6170" y="1840" width="120" height="60" as="geometry" />
        </mxCell>
        <mxCell id="3Yl6NUVvSSKZdZsIhmiR-309" value="medicine_dosage" style="ellipse;whiteSpace=wrap;html=1;" vertex="1" parent="1">
          <mxGeometry x="6370" y="1840" width="120" height="60" as="geometry" />
        </mxCell>
        <mxCell id="3Yl6NUVvSSKZdZsIhmiR-312" value="" style="endArrow=none;html=1;rounded=0;entryX=0.5;entryY=1;entryDx=0;entryDy=0;exitX=0;exitY=0;exitDx=0;exitDy=0;" edge="1" parent="1" source="3Yl6NUVvSSKZdZsIhmiR-316" target="3Yl6NUVvSSKZdZsIhmiR-307">
          <mxGeometry width="50" height="50" relative="1" as="geometry">
            <mxPoint x="6285" y="1950" as="sourcePoint" />
            <mxPoint x="6440" y="1900" as="targetPoint" />
          </mxGeometry>
        </mxCell>
        <mxCell id="3Yl6NUVvSSKZdZsIhmiR-313" value="" style="endArrow=none;html=1;rounded=0;exitX=1;exitY=0;exitDx=0;exitDy=0;entryX=0.5;entryY=1;entryDx=0;entryDy=0;" edge="1" parent="1" source="3Yl6NUVvSSKZdZsIhmiR-316" target="3Yl6NUVvSSKZdZsIhmiR-309">
          <mxGeometry width="50" height="50" relative="1" as="geometry">
            <mxPoint x="6355" y="1950" as="sourcePoint" />
            <mxPoint x="6440" y="1900" as="targetPoint" />
          </mxGeometry>
        </mxCell>
        <mxCell id="3Yl6NUVvSSKZdZsIhmiR-316" value="TreatmentsMedicines" style="shape=rhombus;perimeter=rhombusPerimeter;whiteSpace=wrap;html=1;align=center;" vertex="1" parent="1">
          <mxGeometry x="6230" y="1940" width="180" height="60" as="geometry" />
        </mxCell>
        <mxCell id="3Yl6NUVvSSKZdZsIhmiR-321" value="Pays" style="shape=rhombus;perimeter=rhombusPerimeter;whiteSpace=wrap;html=1;align=center;" vertex="1" parent="1">
          <mxGeometry x="5280" y="1420" width="180" height="60" as="geometry" />
        </mxCell>
        <mxCell id="3Yl6NUVvSSKZdZsIhmiR-322" value="treats" style="shape=rhombus;perimeter=rhombusPerimeter;whiteSpace=wrap;html=1;align=center;" vertex="1" parent="1">
          <mxGeometry x="4900" y="2080" width="180" height="60" as="geometry" />
        </mxCell>
        <mxCell id="3Yl6NUVvSSKZdZsIhmiR-323" value="issued treatments? ig" style="shape=rhombus;perimeter=rhombusPerimeter;whiteSpace=wrap;html=1;align=center;" vertex="1" parent="1">
          <mxGeometry x="5390" y="1730" width="180" height="60" as="geometry" />
        </mxCell>
        <mxCell id="3Yl6NUVvSSKZdZsIhmiR-324" value="mentors" style="shape=rhombus;perimeter=rhombusPerimeter;whiteSpace=wrap;html=1;align=center;" vertex="1" parent="1">
          <mxGeometry x="4750" y="2710" width="180" height="60" as="geometry" />
        </mxCell>
        <mxCell id="3Yl6NUVvSSKZdZsIhmiR-325" value="Rests" style="shape=rhombus;perimeter=rhombusPerimeter;whiteSpace=wrap;html=1;align=center;" vertex="1" parent="1">
          <mxGeometry x="4585" y="1390" width="180" height="60" as="geometry" />
        </mxCell>
        <mxCell id="3Yl6NUVvSSKZdZsIhmiR-326" value="" style="endArrow=none;html=1;rounded=0;exitX=0.5;exitY=0;exitDx=0;exitDy=0;entryX=0.5;entryY=1;entryDx=0;entryDy=0;" edge="1" parent="1" source="3Yl6NUVvSSKZdZsIhmiR-324" target="3Yl6NUVvSSKZdZsIhmiR-47">
          <mxGeometry relative="1" as="geometry">
            <mxPoint x="5010" y="2660" as="sourcePoint" />
            <mxPoint x="5170" y="2660" as="targetPoint" />
            <Array as="points">
              <mxPoint x="4990" y="2640" />
            </Array>
          </mxGeometry>
        </mxCell>
        <mxCell id="3Yl6NUVvSSKZdZsIhmiR-327" value="1" style="resizable=0;html=1;whiteSpace=wrap;align=right;verticalAlign=bottom;" connectable="0" vertex="1" parent="3Yl6NUVvSSKZdZsIhmiR-326">
          <mxGeometry x="1" relative="1" as="geometry" />
        </mxCell>
        <mxCell id="3Yl6NUVvSSKZdZsIhmiR-328" value="" style="endArrow=none;html=1;rounded=0;exitX=0.5;exitY=1;exitDx=0;exitDy=0;entryX=0.5;entryY=1;entryDx=0;entryDy=0;" edge="1" parent="1" source="3Yl6NUVvSSKZdZsIhmiR-324" target="3Yl6NUVvSSKZdZsIhmiR-253">
          <mxGeometry relative="1" as="geometry">
            <mxPoint x="5010" y="2660" as="sourcePoint" />
            <mxPoint x="5170" y="2660" as="targetPoint" />
            <Array as="points">
              <mxPoint x="4840" y="2940" />
              <mxPoint x="4430" y="2940" />
            </Array>
          </mxGeometry>
        </mxCell>
        <mxCell id="3Yl6NUVvSSKZdZsIhmiR-329" value="N" style="resizable=0;html=1;whiteSpace=wrap;align=right;verticalAlign=bottom;" connectable="0" vertex="1" parent="3Yl6NUVvSSKZdZsIhmiR-328">
          <mxGeometry x="1" relative="1" as="geometry" />
        </mxCell>
        <mxCell id="3Yl6NUVvSSKZdZsIhmiR-330" value="" style="endArrow=none;html=1;rounded=0;exitX=0.75;exitY=1;exitDx=0;exitDy=0;entryX=0.5;entryY=1;entryDx=0;entryDy=0;" edge="1" parent="1" source="3Yl6NUVvSSKZdZsIhmiR-47" target="3Yl6NUVvSSKZdZsIhmiR-322">
          <mxGeometry relative="1" as="geometry">
            <mxPoint x="4830" y="2280" as="sourcePoint" />
            <mxPoint x="4990" y="2280" as="targetPoint" />
            <Array as="points">
              <mxPoint x="5020" y="2670" />
              <mxPoint x="5280" y="2670" />
              <mxPoint x="5280" y="2350" />
              <mxPoint x="4990" y="2240" />
            </Array>
          </mxGeometry>
        </mxCell>
        <mxCell id="3Yl6NUVvSSKZdZsIhmiR-331" value="1" style="resizable=0;html=1;whiteSpace=wrap;align=right;verticalAlign=bottom;" connectable="0" vertex="1" parent="3Yl6NUVvSSKZdZsIhmiR-330">
          <mxGeometry x="1" relative="1" as="geometry" />
        </mxCell>
      </root>
    </mxGraphModel>
  </diagram>
</mxfile>
